<?xml version="1.0" encoding="UTF-8" standalone="no"?>
<!-- Created with Inkscape (http://www.inkscape.org/) -->

<svg
   width="210mm"
   height="297mm"
   viewBox="0 0 210 297"
   version="1.1"
   id="svg1"
   xml:space="preserve"
   inkscape:version="1.3.1 (91b66b0, 2023-11-16)"
   sodipodi:docname="icon.svg"
   xmlns:inkscape="http://www.inkscape.org/namespaces/inkscape"
   xmlns:sodipodi="http://sodipodi.sourceforge.net/DTD/sodipodi-0.dtd"
   xmlns="http://www.w3.org/2000/svg"
   xmlns:svg="http://www.w3.org/2000/svg"><sodipodi:namedview
     id="namedview1"
     pagecolor="#ffffff"
     bordercolor="#000000"
     borderopacity="0.25"
     inkscape:showpageshadow="2"
     inkscape:pageopacity="0.0"
     inkscape:pagecheckerboard="0"
     inkscape:deskcolor="#d1d1d1"
     inkscape:document-units="mm"
     inkscape:zoom="0.36844919"
     inkscape:cx="113.99129"
     inkscape:cy="865.79102"
     inkscape:window-width="1512"
     inkscape:window-height="739"
     inkscape:window-x="0"
     inkscape:window-y="38"
     inkscape:window-maximized="0"
     inkscape:current-layer="layer3"
     showguides="true" /><defs
     id="defs1" /><g
     inkscape:label="Robot L"
     inkscape:groupmode="layer"
     id="layer1"><path
       style="fill:#000000;stroke-width:0.661727"
       d="m 20.814605,243.13277 c -0.724118,-0.32483 -1.461477,-1.15035 -1.666728,-1.86602 -0.10289,-0.35875 -0.171634,-4.49719 -0.171634,-10.33243 0,-9.05113 0.02377,-9.82688 0.338707,-11.0583 0.18629,-0.72839 0.551805,-1.74552 0.812258,-2.26031 1.495307,-2.95547 4.702496,-5.70309 7.603138,-6.51365 0.568263,-0.1588 2.161899,-0.31822 3.888113,-0.38895 l 2.925162,-0.11986 0.05124,-3.14257 0.05124,-3.14257 -1.400657,-0.72572 c -2.71902,-1.40882 -4.819637,-4.11717 -5.669369,-7.30962 -0.190782,-0.71676 -0.399615,-2.17909 -0.464075,-3.2496 l -0.117199,-1.94641 -1.476126,-0.74846 c -3.661873,-1.85674 -5.909741,-5.11921 -6.362563,-9.23437 -0.319419,-2.90282 0.251572,-5.07443 2.020097,-7.68288 0.925288,-1.36472 1.118573,-0.7575 1.222492,-2.63717 0.187225,-3.38651 2.319907,-7.30321 5.345297,-11.01079 3.453046,-4.23166 8.755316,-7.09595 15.656206,-8.45752 l 2.451149,-0.4836 0.04639,-5.0918 0.04639,-5.09179 -0.612391,-0.37848 c -2.8098,-1.73655 -3.188435,-5.96029 -0.733156,-8.17849 1.075528,-0.97167 2.089449,-1.34983 3.616376,-1.34878 1.082309,7.3e-4 1.473651,0.0838 2.226445,0.47282 1.932528,0.99853 2.862782,2.41265 2.990138,4.54541 0.075,1.25605 0.03916,1.44506 -0.470308,2.47994 -0.507797,1.03148 -1.278165,1.90757 -2.065749,2.34925 -0.294261,0.16502 -0.316917,0.53434 -0.316917,5.16608 v 4.98836 l 1.225574,0.111 c 6.214433,0.56286 11.739225,2.99823 15.668592,6.90681 1.739181,1.72998 2.790321,3.15244 4.203041,5.68778 3.495054,6.27241 5.096695,12.08692 5.773576,20.9601 0.389855,5.11058 -0.03837,14.50839 -0.793142,17.40615 -0.741713,2.84762 -2.949099,5.44317 -5.413219,6.36512 -1.794644,0.67146 -2.874657,0.74458 -6.355351,0.43023 -1.759524,-0.1589 -3.228363,-0.25784 -3.264086,-0.21986 -0.03572,0.038 -0.09306,0.6085 -0.127426,1.26781 l -0.06247,1.19876 1.576547,0.39934 c 2.083532,0.52777 4.769027,1.80086 6.344928,3.00791 2.857454,2.18863 5.769748,5.80407 6.994776,8.68359 1.157812,2.72153 1.274435,3.7523 1.272695,11.24872 -0.0018,7.6063 -0.01497,7.68684 -1.411718,8.61122 l -0.745026,0.49305 -27.062998,0.0381 c -22.362293,0.0315 -27.154231,-0.003 -27.588244,-0.19753 z m 15.379044,-7.76301 c 0.0631,-1.80554 0.08521,-4.57125 0.115224,-6.14539 0.06099,-3.1994 -0.281542,-4.05105 1.191052,-4.05315 2.029049,-0.0623 9.790328,0 9.790328,0 10.766268,0 10.824158,0.005 12.519044,1.08109 1.105663,0.702 1.916472,1.51692 2.481787,2.93751 0.706674,1.77581 0.576076,3.51621 0.600872,5.30452 l 0.05765,4.1582 h 4.800869 4.80087 l -0.0021,-5.47131 c -0.0022,-5.80578 -0.04118,-6.16145 -0.910341,-8.30624 -0.790921,-1.95172 -2.030965,-3.72846 -3.887296,-5.56973 -1.946016,-1.93023 -2.899307,-2.52896 -4.948062,-3.1077 -1.361391,-0.38456 -1.470093,-0.38731 -17.431703,-0.43996 -12.162005,0.90683 -14.591298,-0.40246 -17.160678,1.10152 -5.440837,3.18481 -3.623419,3.81757 -4.332657,12.90398 v 8.88939 h 6.10019 6.10019 z m 21.863294,-0.54221 c -0.0039,-2.41578 0.29807,-3.94822 -1.110697,-4.84157 -1.408766,-0.89334 -6.918987,-0.7338 -11.641912,-0.42526 -4.722925,0.30853 -4.285982,-0.31646 -4.333145,4.02278 -0.04716,4.33925 -0.02214,5.06866 -0.02214,5.06866 l 8.579022,3.4e-4 8.579022,3.6e-4 z m -1.175432,-27.10533 c 0,-0.0156 -1.8121,-0.27332 -4.026888,-0.57272 -6.860555,-0.92745 -12.766896,-1.77048 -13.087385,-1.868 -0.282669,-0.086 -0.306393,0.11768 -0.306393,2.63069 v 2.72392 l 8.622792,0.0454 8.622792,0.0454 0.08754,-1.4882 c 0.04815,-0.81851 0.08754,-1.50095 0.08754,-1.51653 z m 12.615565,-4.01214 c 1.399698,-0.49668 2.704767,-2.34996 2.844915,-4.03997 l 0.07764,-0.93628 h -4.75452 c -5.292751,0 -5.695985,-0.0692 -6.314523,-1.08372 -0.705972,-1.15794 -0.254249,-2.55644 1.048213,-3.2452 0.730166,-0.38612 0.898798,-0.3983 5.515472,-0.3983 h 4.762278 l 0.615665,-1.07617 c 0.29552,-0.51656 0.499814,-2.16392 0.184366,-3.3109 l -0.575066,-2.09095 h -8.464071 c -7.921309,0 -8.527388,-0.0218 -9.451469,-0.33972 -3.272173,-1.12579 -5.362906,-4.36136 -5.663435,-8.76456 -0.111419,-1.63246 0.164884,-3.09624 0.830863,-4.40167 0.561178,-1.09999 1.842396,-2.36545 2.941711,-2.90553 l 0.985079,-0.48395 7.922464,0.0653 c 4.357354,0.0359 8.271335,0.26635 7.922463,-0.0185 -0.03565,-0.0291 -0.34506,-0.87275 -0.766799,-1.83706 -2.463739,-5.63335 -5.611168,-9.07997 -10.227334,-11.19956 -3.177868,-1.45915 -5.166851,-1.83712 -9.753092,-1.85337 -2.827089,-0.01 -3.340704,0.0356 -4.989839,0.44359 -7.300372,1.80592 -12.578313,5.54574 -15.219642,10.78429 -0.30837,0.61159 -0.582095,1.57827 -0.499897,1.17276 0.03342,0.0334 0.642763,-0.0198 1.354083,-0.11846 1.495107,-0.20719 3.313199,-0.0169 5.086106,0.53236 5.673487,1.75769 9.206638,8.23246 7.702177,14.11484 -0.603012,2.35776 -1.440301,3.81221 -3.231588,5.61356 -1.861251,1.87171 -3.417148,2.73247 -5.747261,3.17953 -0.790405,0.15164 -1.454797,0.28699 -1.476426,0.3008 -0.02163,0.0137 0.03012,0.82466 0.115017,1.80196 0.233649,2.6899 1.055524,4.21667 2.894604,5.37721 1.812002,1.14344 2.162575,1.22649 8.885113,2.10496 2.627563,0.34334 5.368291,0.73849 6.090504,0.8781 1.477757,0.28566 8.320775,1.14887 12.430827,1.56808 1.492574,0.15224 3.304674,0.34136 4.026888,0.42026 1.439603,0.15727 1.838426,0.12235 2.89851,-0.2538 z m -35.86585,-17.43544 c 1.356347,-0.50748 3.009114,-2.09644 3.637824,-3.4974 1.850488,-4.12343 -0.845178,-9.12711 -5.365905,-9.96016 -2.875662,-0.52992 -5.838823,1.10948 -7.200211,3.98355 -0.511322,1.07947 -0.561368,1.33535 -0.557293,2.84926 0.004,1.50752 0.05669,1.77082 0.562085,2.81182 0.946736,1.95005 3.207018,3.77776 5.185768,4.19333 0.995772,0.20912 2.597885,0.046 3.737732,-0.3804 z m 30.698272,-4.22662 c 2.087013,-1.10363 2.046628,-4.2592 -0.06735,-5.26235 -0.332947,-0.15799 -0.988616,-0.28726 -1.457041,-0.28726 -2.590876,0 -3.970585,2.92451 -2.285265,4.84398 1.022625,1.16471 2.443767,1.42794 3.809654,0.70563 z"
       id="path1"
       sodipodi:nodetypes="ssssssscccssscsssssscccssscsssscssssssssscssssscssssszsssccccsssscsccccsczzzccccsssscccssscscsssscsscscsssccssscsscccssscsssssscccsssssscssssss"
       inkscape:label="Robot L" /></g><g
     inkscape:groupmode="layer"
     id="layer3"
     inkscape:label="Robot R"><path
       d="m 116.59358,240.32492 c -0.71961,-0.48076 -1.13207,-1.31342 -1.13239,-2.28605 -3.7e-4,-1.13856 0.58318,-5.47883 1.05575,-7.85224 1.37752,-6.91839 4.72304,-12.42596 9.93251,-16.35142 1.5779,-1.18898 2.85519,-1.86935 4.65956,-2.48199 l 1.31082,-0.44507 0.0466,-1.8436 0.0466,-1.84362 -1.27547,0.10484 c -5.75895,0.47337 -12.84245,0.96308 -14.05608,0.97174 -1.76599,0.0127 -2.63904,-0.30856 -3.68672,-1.35624 -1.49286,-1.49285 -1.61802,-2.41792 -1.62943,-12.04328 -0.008,-6.93509 0.13694,-10.18914 0.65788,-14.74688 0.70018,-6.12565 1.69882,-9.90509 3.39212,-12.83773 1.86374,-3.22781 4.0582,-5.87106 6.33032,-7.62493 4.5901,-3.54315 8.87636,-5.1212 15.04892,-5.54049 l 2.90841,-0.19756 v -4.69701 -4.69702 l -0.65667,-0.43457 c -1.35278,-0.89523 -2.39075,0.11925 -3.89899,-3.86736 -1.20836,-3.194 4.19425,-4.97238 6.76771,-4.9838 1.54099,-0.007 4.13739,0.61713 5.22072,1.80246 2.1067,2.30507 3.43394,6.58775 -2.73399,7.35779 -0.28226,0.0352 -0.27407,0.6596 -0.28451,4.8337 l -0.0117,4.66984 0.70713,0.0404 c 4.57583,0.26191 8.0824,1.32872 11.38265,3.46298 3.87043,2.50298 6.95705,6.70767 8.01234,10.91467 0.5888,2.34732 0.80213,6.45213 0.58338,11.22506 -0.19167,4.18221 -0.33817,4.91482 -1.43951,7.19852 -0.61757,1.28057 -0.97401,1.77317 -2.07897,2.87312 -0.88912,0.8851 -1.70199,1.51681 -2.439,1.89539 l -1.10541,0.56782 -6e-4,9.03659 -6e-4,9.0366 0.86023,0.20604 c 1.16511,0.27906 1.78391,0.55157 3.00791,1.32459 1.80934,1.14271 2.96159,2.66228 3.78548,4.9923 l 0.45715,1.29283 0.0478,10.35864 c 0.0532,11.51562 0.10808,10.90398 -1.05897,11.79416 l -0.60184,0.45907 -23.78596,0.0426 -23.78597,0.0426 z m 45.3665,-12.69706 -0.0464,-8.64331 -0.50953,-1.06506 c -0.6219,-1.29993 -1.48606,-2.20811 -2.59039,-2.72233 l -0.83258,-0.38769 -11.47309,-0.002 c -11.024,-8.5e-4 -11.52001,0.0114 -12.67185,0.33059 -2.43491,0.67475 -4.72566,2.07595 -6.8235,4.1738 -3.27298,3.27298 -5.30417,7.71459 -6.63148,14.50109 -0.18507,0.94626 -0.37382,1.88637 -0.41945,2.08915 l -0.083,0.36866 h 21.0639 21.0639 z m -22.85428,6.68697 c -0.28799,-0.17709 -0.64074,-0.50071 -0.78388,-0.71917 -0.34897,-0.53262 -0.36088,-1.79934 -0.0218,-2.31689 0.59787,-0.91246 0.38291,-0.88938 8.75707,-0.94073 l 7.75118,-0.0476 0.55236,0.60123 c 0.71534,0.77865 0.86906,1.56067 0.46616,2.37141 -0.167,0.33604 -0.51173,0.76323 -0.76608,0.94928 -0.4491,0.32853 -0.67826,0.33951 -7.94693,0.38134 -7.19389,0.0414 -7.50481,0.0305 -8.0081,-0.27892 z m 0.28111,-8.65348 c -1.20826,-0.60705 -1.67641,-2.1481 -0.99303,-3.26886 0.64723,-1.0615 0.51187,-1.04636 8.8967,-0.9958 7.28443,0.0439 7.59417,0.0583 8.01444,0.37338 0.52163,0.39104 0.95561,1.23186 0.95561,1.85149 0,0.69769 -0.54555,1.55387 -1.24597,1.95543 -0.63388,0.36341 -0.68902,0.366 -7.84794,0.36842 -6.54017,0.003 -7.26254,-0.0241 -7.77981,-0.28406 z m 6.90334,-15.60685 h 7.3487 v -8.60234 c 0,-7.11336 -0.0383,-8.60235 -0.22124,-8.60235 -0.12169,0 -0.86777,1.0716 -1.65797,2.38132 -3.87343,6.42008 -6.62587,8.87405 -11.94022,10.64546 -0.91563,0.3052 -2.05189,0.60538 -2.52502,0.66705 l -0.86023,0.11214 v 1.80533 1.80533 l 1.25362,-0.10597 c 0.6895,-0.0583 4.56056,-0.10597 8.60236,-0.10597 z m -25.50405,-6.39167 c 0.63084,-0.085 2.6954,-0.26795 4.58791,-0.40662 6.05481,-0.44362 10.68421,-1.03803 12.37099,-1.58842 4.5157,-1.47348 6.6628,-3.40165 10.21648,-9.17475 l 1.07693,-1.74953 -0.77175,-0.45228 c -1.17231,-0.68702 -3.16007,-2.76933 -3.89062,-4.07568 -1.72573,-3.08588 -1.84541,-6.71216 -0.32995,-9.99695 1.2084,-2.6192 3.39342,-4.45321 6.57561,-5.51924 0.94274,-0.31582 1.46277,-0.37801 3.09908,-0.37058 1.70977,0.008 2.13704,0.0681 3.27551,0.46266 1.22652,0.42506 2.90447,1.30814 3.57242,1.88009 0.27792,0.23798 0.28775,0.21228 0.18239,-0.47657 -0.55472,-3.62653 -1.94067,-6.47013 -4.308,-8.83886 -2.16494,-2.16621 -4.17267,-3.31323 -7.23828,-4.13525 -1.32734,-0.35592 -1.64561,-0.37078 -7.93695,-0.37078 h -6.55417 l -1.72047,0.43837 c -5.95353,1.51695 -10.93513,5.49508 -13.66187,10.90984 l -0.59889,1.18927 4.46775,-0.10234 c 5.88945,-0.1349 8.48879,0.0644 9.90578,0.75973 0.55769,0.27364 1.21465,0.73477 1.45991,1.02476 1.08444,1.28212 1.69854,3.48636 1.69901,6.09828 3.2e-4,1.9064 -0.26342,3.19592 -0.86288,4.21881 -0.60286,1.0287 -2.14937,2.40423 -3.50262,3.11533 -1.97718,1.03899 -2.49284,1.09922 -9.43382,1.10194 l -6.18549,0.003 -5e-5,2.5807 -6e-5,2.5807 h 4.79278 c 4.69136,0 4.8036,0.008 5.30368,0.36442 0.28098,0.20044 0.60388,0.58893 0.71754,0.86332 0.26065,0.62929 0.12324,1.72232 -0.27239,2.1666 -0.59932,0.67305 -1.11412,0.74912 -5.91262,0.87374 l -4.62888,0.12023 -0.0356,1.16486 c -0.074,2.42606 0.0627,4.76298 0.30082,5.13832 0.21381,0.33708 0.3564,0.36821 1.6638,0.36331 0.78647,-0.003 1.94608,-0.0749 2.57693,-0.15985 z m 36.2351,-17.04184 c 1.18763,-0.58102 2.06278,-1.49172 2.65554,-2.7635 0.36236,-0.77744 0.42948,-1.15051 0.43096,-2.39555 0.002,-1.32047 -0.053,-1.59048 -0.52198,-2.5821 -0.94157,-1.9908 -2.55517,-3.35688 -4.69444,-3.97429 -1.91374,-0.55233 -3.94045,0.12631 -5.53971,1.85497 -1.23932,1.33959 -1.66694,2.43423 -1.6766,4.2918 -0.007,1.23936 0.0502,1.51139 0.51509,2.46987 1.6265,3.35411 5.51803,4.71963 8.83114,3.0988 z m -31.29435,-4.60109 c 1.33198,-0.8232 1.69443,-2.65176 0.78274,-3.94896 -1.59443,-2.26859 -5.15001,-1.17182 -5.15001,1.58861 0,2.19225 2.47496,3.52987 4.36727,2.36035 z"
       style="fill:#000000;stroke-width:0.619292"
       id="path1-26"
       inkscape:label="Robot R" /></g><g
     inkscape:groupmode="layer"
     id="layer2"
     inkscape:label="bubble"><circle
       style="fill:#4a5b37;stroke:#000000;stroke-width:5.29167;stroke-linejoin:round"
       id="path2"
       cx="84.370773"
       cy="137.2312"
       r="5.9266968" /><circle
       style="fill:#4a5b37;stroke:#000000;stroke-width:5.29167;stroke-linejoin:round"
       id="circle2"
       cx="117.71546"
       cy="137.25175"
       r="5.9266968" /><circle
       style="fill:#4a5b37;stroke:#000000;stroke-width:5.29167;stroke-linejoin:round"
       id="circle3"
       cx="101.01294"
       cy="137.15169"
       r="5.9266968" /><path
       d="m 83.507297,170.03844 c -0.334399,-0.17052 -0.773254,-0.53509 -0.975233,-0.81017 -0.34272,-0.46675 -0.373153,-0.80408 -0.455892,-5.05347 l -0.08866,-4.55335 -3.103014,-0.10962 c -2.486734,-0.0879 -3.30275,-0.18185 -4.108701,-0.4733 -1.429913,-0.51707 -2.743183,-1.41018 -3.870477,-2.63215 -1.148434,-1.2449 -1.842292,-2.58433 -2.322547,-4.48348 -0.335185,-1.32548 -0.346546,-1.96441 -0.298484,-16.78763 l 0.04996,-15.40971 0.663136,-1.38881 c 1.238022,-2.59281 3.669376,-4.47787 6.641785,-5.14947 1.144359,-0.25856 3.758495,-0.28835 25.303,-0.28835 16.85595,0 24.30722,0.0585 24.96642,0.19595 3.24388,0.67647 6.27005,3.62469 7.17,6.98531 0.18944,0.7074 0.23785,3.92749 0.23953,15.93276 0.002,16.69904 0.0423,16.07611 -1.18197,18.41148 -1.47059,2.8052 -4.08422,4.58449 -7.53257,5.12799 -1.28434,0.20242 -18.34502,0.12194 -24.35262,-0.11488 l -2.482411,-0.0979 -3.006025,2.71162 c -1.653315,1.49138 -4.192242,3.85518 -5.642062,5.25287 -1.44982,1.39771 -2.907205,2.65458 -3.238635,2.79306 -0.807705,0.33748 -1.637693,0.31693 -2.374535,-0.0588 z m 7.079998,-10.87337 c 1.706657,-1.61683 3.531561,-3.33256 4.055341,-3.81272 l 0.952326,-0.87304 14.527818,-0.0281 14.52782,-0.0282 0.96221,-0.47076 c 0.52922,-0.25893 1.20098,-0.76045 1.49282,-1.1145 1.10555,-1.34121 1.07246,-0.83114 1.07246,-16.53269 0,-15.96367 0.0325,-15.50916 -1.20688,-16.88381 -1.34717,-1.49421 0.9834,-1.37196 -26.23832,-1.37634 -20.108147,-0.003 -24.262827,0.037 -24.74835,0.23989 -1.206042,0.50392 -2.234827,1.68574 -2.611861,3.00038 -0.08147,0.28407 -0.158199,7.09604 -0.170504,15.13771 l -0.02237,14.6212 0.47751,0.976 c 0.548654,1.12141 1.693569,2.0637 2.867625,2.36012 0.408898,0.10324 2.164317,0.19405 3.900932,0.2018 4.113029,0.0184 6.05026,0.17951 6.266353,0.52126 0.09131,0.14441 0.167248,1.88811 0.168741,3.87491 0.0025,3.41444 0.01972,3.59903 0.313017,3.36943 0.170665,-0.13359 1.706657,-1.56576 3.413315,-3.18259 z"
       style="fill:#000000;stroke-width:0.670167"
       id="path1-2"
       inkscape:label="bubble" /></g></svg>
