<?xml version="1.0" encoding="UTF-8" standalone="no"?>
<!-- Created with Inkscape (http://www.inkscape.org/) -->

<svg
   width="210mm"
   height="297mm"
   viewBox="0 0 210 297"
   version="1.1"
   id="svg1"
   xml:space="preserve"
   inkscape:version="1.3.1 (91b66b0, 2023-11-16)"
   sodipodi:docname="icon.svg"
   xmlns:inkscape="http://www.inkscape.org/namespaces/inkscape"
   xmlns:sodipodi="http://sodipodi.sourceforge.net/DTD/sodipodi-0.dtd"
   xmlns="http://www.w3.org/2000/svg"
   xmlns:svg="http://www.w3.org/2000/svg"><sodipodi:namedview
     id="namedview1"
     pagecolor="#ffffff"
     bordercolor="#000000"
     borderopacity="0.25"
     inkscape:showpageshadow="2"
     inkscape:pageopacity="0.0"
     inkscape:pagecheckerboard="0"
     inkscape:deskcolor="#d1d1d1"
     inkscape:document-units="mm"
     inkscape:zoom="0.63416321"
     inkscape:cx="421.02726"
     inkscape:cy="812.88222"
     inkscape:window-width="1512"
     inkscape:window-height="916"
     inkscape:window-x="0"
     inkscape:window-y="38"
     inkscape:window-maximized="1"
     inkscape:current-layer="layer1" /><defs
     id="defs1" /><g
     inkscape:label="Layer 1"
     inkscape:groupmode="layer"
     id="layer1"><path
       style="fill:#000000;stroke-width:0.670167"
       d="m 20.838051,243.13012 c -0.733353,-0.32897 -1.480116,-1.16502 -1.687985,-1.88982 -0.104202,-0.36333 -0.173823,-4.55455 -0.173823,-10.46421 0,-9.16657 0.02407,-9.95221 0.343027,-11.19934 0.188666,-0.73768 0.558843,-1.76778 0.822617,-2.28913 1.514379,-2.99317 4.762472,-5.77583 7.700109,-6.59673 0.57551,-0.16082 2.189471,-0.32228 3.937702,-0.39391 l 2.962469,-0.12139 0.05189,-3.18265 0.05189,-3.18265 -1.418521,-0.73498 c -2.753698,-1.42678 -4.881107,-4.16968 -5.741676,-7.40284 -0.193215,-0.7259 -0.404712,-2.20688 -0.469994,-3.29105 l -0.118694,-1.97123 -1.494952,-0.75801 c -3.708576,-1.88042 -5.985114,-5.1845 -6.443711,-9.35214 -0.323493,-2.93985 0.254781,-5.13915 2.045861,-7.78087 0.937089,-1.38213 1.13284,-1.80441 1.238084,-2.6708 0.414216,-3.40988 2.349495,-7.39636 5.413471,-11.15123 3.497086,-4.28563 8.866981,-7.18645 15.855885,-8.56538 l 2.482411,-0.48977 0.04698,-5.15674 0.04698,-5.15673 -0.620202,-0.38331 c -2.845636,-1.7587 -3.2291,-6.03631 -0.742506,-8.2828 1.089245,-0.98406 2.116098,-1.36704 3.662499,-1.36598 1.096113,7.4e-4 1.492446,0.0849 2.254841,0.47885 1.957175,1.01127 2.899294,2.44342 3.028274,4.60338 0.07596,1.27207 0.03966,1.46349 -0.476306,2.51157 -0.514274,1.04464 -1.294467,1.9319 -2.092096,2.37921 -0.298014,0.16713 -0.320959,0.54116 -0.320959,5.23197 v 5.05198 l 1.241205,0.11242 c 6.293692,0.57004 11.888947,3.03647 15.868429,6.9949 1.761363,1.75204 2.825909,3.19264 4.256647,5.76032 3.53963,6.35241 5.161698,12.24108 5.847212,21.22743 0.394827,5.17576 -0.03886,14.69342 -0.803258,17.62814 -0.751173,2.88394 -2.986712,5.5126 -5.482259,6.4463 -1.817533,0.68003 -2.91132,0.75408 -6.436407,0.43572 -1.781965,-0.16093 -3.269537,-0.26113 -3.305716,-0.22266 -0.03618,0.0385 -0.09425,0.61626 -0.129051,1.28398 l -0.06327,1.21405 1.596654,0.40443 c 2.110106,0.5345 4.829851,1.82383 6.425851,3.04627 2.893898,2.21654 5.843336,5.8781 7.083988,8.79434 1.172578,2.75624 1.290689,3.80016 1.288927,11.39219 -0.0018,7.70331 -0.01516,7.78488 -1.429724,8.72104 l -0.754528,0.49934 -27.408159,0.0386 c -22.647501,0.0319 -27.500555,-0.003 -27.940104,-0.20005 z M 36.41324,235.2681 c 0.0639,-1.82857 0.116417,-4.62926 0.116693,-6.22377 l 5.01e-4,-2.89909 0.602871,-0.60288 0.602871,-0.60287 h 9.915193 c 10.903581,0 10.96221,0.005 12.678712,1.09488 1.119765,0.71095 1.850358,1.57569 2.51344,2.97497 l 0.550145,1.16095 0.05839,4.21123 0.05839,4.21123 h 4.862099 4.8621 l -0.0021,-5.54109 c -0.0022,-5.87983 -0.04171,-6.24004 -0.921952,-8.41218 -0.801008,-1.97661 -2.056868,-3.77601 -3.936874,-5.64077 -1.970836,-1.95484 -2.936285,-2.56121 -5.01117,-3.14733 -1.378754,-0.38947 -1.488843,-0.39225 -17.654027,-0.44557 l -16.266621,-0.0537 -0.953306,0.45099 c -1.295894,0.61306 -3.076805,2.29031 -3.882601,3.6566 l -0.664932,1.12746 v 9.00277 9.00277 h 6.177991 6.177992 z m 22.142138,-0.54913 -0.05078,-3.8741 -0.537042,-0.51461 -0.537041,-0.5146 h -8.078192 -8.078191 l -0.02242,4.38834 -0.02242,4.38836 8.688439,3.5e-4 8.688438,3.6e-4 z m -1.190424,-27.45103 c 0,-0.0158 -1.835211,-0.2768 -4.078247,-0.58002 -6.948054,-0.93928 -12.929725,-1.79306 -13.254301,-1.89182 -0.286274,-0.0871 -0.310301,0.11918 -0.310301,2.66424 v 2.75866 l 8.732767,0.046 8.732767,0.046 0.08866,-1.50718 c 0.04876,-0.82895 0.08866,-1.5201 0.08866,-1.53588 z m 12.776464,-4.06331 c 1.41755,-0.50301 2.739263,-2.37993 2.881199,-4.09149 l 0.07863,-0.94822 h -4.815159 c -5.360255,0 -5.768632,-0.0701 -6.395058,-1.09755 -0.714976,-1.1727 -0.257492,-2.58904 1.061582,-3.28658 0.739478,-0.39105 0.910261,-0.40338 5.585816,-0.40338 h 4.823016 l 0.113917,-1.0899 c 0.06265,-0.59945 0.113917,-2.07559 0.113917,-3.28033 v -2.19042 h -8.572022 c -8.022337,0 -8.636146,-0.0221 -9.572012,-0.34405 -3.313907,-1.14015 -5.431305,-4.41698 -5.735667,-8.87634 -0.11284,-1.65328 0.166987,-3.13573 0.84146,-4.45781 0.568335,-1.11402 1.865894,-2.39562 2.979229,-2.94259 l 0.997643,-0.49012 8.023507,0.0661 c 4.412928,0.0364 8.023506,0.028 8.023506,-0.0187 0,-0.0466 -0.349461,-0.88388 -0.776579,-1.86049 -2.495161,-5.7052 -5.682732,-9.19578 -10.357773,-11.3424 -3.218398,-1.47776 -5.232749,-1.86055 -9.877483,-1.87701 -2.863145,-0.0101 -3.383311,0.0361 -5.053479,0.44925 -7.393481,1.82895 -12.738737,5.61647 -15.413753,10.92183 -0.312303,0.61939 -0.540126,1.15386 -0.506273,1.18772 0.03385,0.0338 0.650961,-0.0201 1.371353,-0.11997 1.514176,-0.20983 3.355456,-0.0171 5.150974,0.53915 5.745847,1.7801 9.32406,8.33745 7.800411,14.29486 -0.610703,2.38783 -1.458671,3.86083 -3.272804,5.68515 -1.884989,1.89558 -3.46073,2.76732 -5.820561,3.22008 -0.800486,0.15358 -1.473352,0.29066 -1.495257,0.30464 -0.0219,0.0139 0.03051,0.83518 0.116484,1.82494 0.236629,2.72421 1.068986,4.27045 2.931522,5.44579 1.835112,1.15803 2.190156,1.24214 8.998434,2.13181 2.661075,0.34772 5.436758,0.74791 6.168182,0.8893 1.496604,0.2893 8.426898,1.16352 12.589369,1.58808 1.511611,0.15418 3.346822,0.34571 4.078247,0.42562 1.457964,0.15928 1.861873,0.12391 2.935478,-0.25704 z M 33.818135,185.54682 c 1.373646,-0.51395 3.047493,-2.12318 3.684221,-3.542 1.874089,-4.17602 -0.855957,-9.24352 -5.434342,-10.0872 -2.912338,-0.53667 -5.913291,1.12363 -7.292042,4.03436 -0.517843,1.09324 -0.568528,1.35238 -0.564401,2.8856 0.0041,1.52675 0.05741,1.79341 0.569254,2.84768 0.958811,1.97492 3.24792,3.82594 5.251907,4.24681 1.008472,0.21179 2.631019,0.0466 3.785403,-0.38525 z m 31.089798,-4.28052 c 2.11363,-1.11771 2.07273,-4.31353 -0.06821,-5.32947 -0.337194,-0.16001 -1.001225,-0.29092 -1.475624,-0.29092 -2.62392,0 -4.021226,2.96181 -2.314412,4.90576 1.035668,1.17956 2.474935,1.44615 3.858243,0.71463 z m 63.810827,61.71322 c -0.77873,-0.52025 -1.22508,-1.42132 -1.22543,-2.47385 -4e-4,-1.23209 0.6311,-5.92893 1.14249,-8.49732 1.49068,-7.48674 5.11104,-13.44677 10.74848,-17.69471 1.70753,-1.28666 3.08975,-2.02292 5.04235,-2.68589 l 1.41851,-0.48163 0.0504,-1.99506 0.0504,-1.99507 -1.38025,0.11345 c -6.23205,0.51226 -13.89748,1.04219 -15.21081,1.05157 -1.91107,0.0137 -2.85584,-0.33391 -3.98959,-1.46766 -1.6155,-1.61549 -1.75094,-2.61656 -1.76329,-13.03265 -0.009,-7.50482 0.14819,-11.02619 0.71193,-15.95836 0.75769,-6.62888 1.83837,-10.7188 3.67078,-13.89236 2.01685,-3.49298 4.3916,-6.35338 6.85037,-8.25134 4.96718,-3.83422 9.60556,-5.54191 16.28522,-5.99564 l 3.14734,-0.21379 v -5.08288 -5.08289 l -0.71062,-0.47027 c -1.46392,-0.96878 -2.58716,0.12905 -4.2193,-4.18507 -1.30763,-3.45639 4.53881,-5.38087 7.32368,-5.39323 1.66759,-0.007 4.47729,0.66783 5.64962,1.95054 2.27977,2.49444 3.71604,7.12894 -2.95859,7.96225 -0.30546,0.0381 -0.29659,0.71378 -0.30789,5.23079 l -0.0127,5.05348 0.76522,0.0438 c 4.95175,0.28343 8.74638,1.43788 12.31776,3.74747 4.18839,2.70861 7.52858,7.25872 8.67056,11.81133 0.63717,2.54015 0.86803,6.98219 0.63131,12.14721 -0.20742,4.52579 -0.36596,5.31858 -1.55778,7.78989 -0.6683,1.38577 -1.05402,1.91884 -2.24975,3.10915 -0.96217,0.95782 -1.84182,1.64142 -2.63937,2.0511 l -1.19622,0.61446 -6.5e-4,9.77897 -6.6e-4,9.77897 0.9309,0.22297 c 1.26084,0.30198 1.93047,0.59687 3.25503,1.4334 1.95797,1.23658 3.20488,2.88099 4.09646,5.40242 l 0.4947,1.39905 0.0517,11.20962 c 0.0576,12.46164 0.11696,11.79976 -1.14597,12.76307 l -0.65128,0.49678 -25.74001,0.0461 -25.74002,0.0461 z m 49.09342,-13.74014 -0.0503,-9.35337 -0.55139,-1.15255 c -0.67299,-1.40673 -1.60814,-2.38952 -2.80319,-2.94598 l -0.90098,-0.41954 -12.41562,-0.002 c -11.92963,-0.001 -12.4664,0.0123 -13.71286,0.35776 -2.63494,0.73018 -5.11389,2.24649 -7.38406,4.51668 -3.54186,3.54186 -5.73992,8.34836 -7.17627,15.69238 -0.20027,1.02399 -0.40453,2.04134 -0.45391,2.26077 l -0.0898,0.39895 h 22.79433 22.79434 z m -24.73179,7.23632 c -0.31165,-0.19164 -0.69338,-0.54185 -0.84828,-0.77826 -0.37764,-0.57637 -0.39052,-1.94716 -0.0236,-2.50722 0.64698,-0.98743 0.41437,-0.96244 9.47647,-1.01802 l 8.38795,-0.0515 0.59774,0.65064 c 0.77411,0.84261 0.94046,1.68887 0.50446,2.56621 -0.18072,0.36366 -0.55378,0.82593 -0.82902,1.02727 -0.486,0.35552 -0.73397,0.36741 -8.59978,0.41267 -7.78488,0.0448 -8.12135,0.033 -8.66598,-0.30184 z m 0.3042,-9.36438 c -1.30751,-0.65692 -1.81412,-2.32457 -1.0746,-3.53741 0.7004,-1.1487 0.55392,-1.13231 9.62758,-1.07761 7.88285,0.0475 8.21804,0.0631 8.67283,0.40407 0.56448,0.42315 1.03411,1.33305 1.03411,2.00358 0,0.75501 -0.59036,1.68153 -1.34832,2.11608 -0.68595,0.39326 -0.74563,0.39606 -8.49267,0.39868 -7.07745,0.003 -7.85916,-0.0261 -8.41893,-0.30739 z m 7.47046,-16.88898 h 7.95241 v -9.30904 c 0,-7.69773 -0.0414,-9.30904 -0.23942,-9.30904 -0.13168,0 -0.93906,1.15963 -1.79417,2.57694 -4.19164,6.94751 -7.17019,9.60308 -12.92113,11.52001 -0.99085,0.33027 -2.22045,0.65511 -2.73245,0.72185 l -0.9309,0.12135 v 1.95364 1.95364 l 1.35661,-0.11467 c 0.74614,-0.0631 4.93521,-0.11468 9.30905,-0.11468 z m -27.59925,-6.91676 c 0.68267,-0.092 2.91683,-0.28996 4.96482,-0.44002 6.55222,-0.48006 11.56194,-1.12331 13.38728,-1.71892 4.88668,-1.59452 7.21017,-3.68109 11.05579,-9.92846 l 1.1654,-1.89326 -0.83515,-0.48943 c -1.26862,-0.74346 -3.41968,-2.99684 -4.21025,-4.41051 -1.86749,-3.33939 -1.99701,-7.26358 -0.35705,-10.8182 1.30767,-2.83438 3.6722,-4.81905 7.11581,-5.97266 1.02019,-0.34177 1.58294,-0.40906 3.35368,-0.40102 1.85022,0.008 2.31259,0.0737 3.54459,0.50067 1.32728,0.45998 3.14307,1.4156 3.8659,2.03454 0.30075,0.25753 0.31139,0.22972 0.19737,-0.51573 -0.60029,-3.92445 -2.1001,-7.00166 -4.66191,-9.56498 -2.34279,-2.34417 -4.51546,-3.58542 -7.83291,-4.47497 -1.43639,-0.38516 -1.7808,-0.40124 -8.58899,-0.40124 h -7.0926 l -1.86181,0.47438 c -6.44262,1.64158 -11.83347,5.94651 -14.78422,11.80611 l -0.64808,1.28696 4.83478,-0.11074 c 6.37328,-0.14599 9.18616,0.0697 10.71956,0.82214 0.6035,0.29612 1.31443,0.79514 1.57984,1.10895 1.17353,1.38745 1.83808,3.77277 1.83858,6.59926 3.5e-4,2.06301 -0.28506,3.45846 -0.93376,4.56538 -0.65239,1.11322 -2.32595,2.60174 -3.79037,3.37127 -2.13961,1.12434 -2.69763,1.18952 -10.20882,1.19246 l -6.69364,0.003 -6e-5,2.79271 -6e-5,2.79271 h 5.18652 c 5.07676,0 5.19822,0.008 5.73938,0.39436 0.30407,0.2169 0.65349,0.63731 0.77649,0.93425 0.28207,0.68098 0.13337,1.86381 -0.29476,2.34458 -0.64856,0.72834 -1.20565,0.81066 -6.39836,0.94553 l -5.00915,0.1301 -0.0385,1.26055 c -0.0801,2.62537 0.0679,5.15427 0.32554,5.56044 0.23137,0.36477 0.38567,0.39846 1.80048,0.39316 0.85107,-0.003 2.10596,-0.081 2.78862,-0.17299 z m 39.21188,-18.44185 c 1.2852,-0.62875 2.23223,-1.61427 2.87369,-2.99052 0.39213,-0.84132 0.46476,-1.24503 0.46637,-2.59235 0.002,-1.42896 -0.0574,-1.72115 -0.56487,-2.79422 -1.01891,-2.15435 -2.76507,-3.63265 -5.08009,-4.30079 -2.07096,-0.5977 -4.26416,0.13669 -5.9948,2.00736 -1.34113,1.44965 -1.80389,2.63421 -1.81434,4.64437 -0.007,1.34118 0.0544,1.63555 0.55741,2.67278 1.76012,3.62966 5.97134,5.10735 9.55663,3.35337 z m -33.86523,-4.97908 c 1.4414,-0.89083 1.83363,-2.86961 0.84704,-4.27336 -1.72542,-2.45496 -5.57309,-1.26809 -5.57309,1.71911 0,2.37234 2.67828,3.81985 4.72605,2.55425 z m -55.07092,-9.15951 c -0.334399,-0.17052 -0.773254,-0.53509 -0.975233,-0.81017 -0.34272,-0.46675 -0.373153,-0.80408 -0.455892,-5.05347 l -0.08866,-4.55335 -3.103014,-0.10962 c -2.486734,-0.0879 -3.30275,-0.18185 -4.108701,-0.4733 -1.429913,-0.51707 -2.743183,-1.41018 -3.870477,-2.63215 -1.148434,-1.2449 -1.842292,-2.58433 -2.322547,-4.48348 -0.335185,-1.32548 -0.346546,-1.96441 -0.298484,-16.78763 l 0.04996,-15.40971 0.663136,-1.38881 c 1.238022,-2.59281 3.669376,-4.47787 6.641785,-5.14947 1.144359,-0.25856 3.758495,-0.28835 25.302997,-0.28835 16.85595,0 24.30722,0.0585 24.96642,0.19595 3.24388,0.67647 6.27005,3.62469 7.17,6.98531 0.18944,0.7074 0.23785,3.92749 0.23953,15.93276 0.002,16.69904 0.0423,16.07611 -1.18197,18.41148 -1.47059,2.8052 -4.08422,4.58449 -7.53257,5.12799 -1.28434,0.20242 -18.34502,0.12194 -24.35262,-0.11488 l -2.482404,-0.0979 -3.006029,2.71162 c -1.653315,1.49138 -4.192242,3.85518 -5.642062,5.25287 -1.44982,1.39771 -2.907205,2.65458 -3.238635,2.79306 -0.807705,0.33748 -1.637693,0.31693 -2.374535,-0.0588 z m 7.079998,-10.87337 c 1.706657,-1.61683 3.531561,-3.33256 4.055341,-3.81272 l 0.952326,-0.87304 14.527815,-0.0281 14.52782,-0.0282 0.96221,-0.47076 c 0.52922,-0.25893 1.20098,-0.76045 1.49282,-1.1145 1.10555,-1.34121 1.07246,-0.83114 1.07246,-16.53269 0,-15.96367 0.0325,-15.50916 -1.20688,-16.88381 -1.34717,-1.49421 0.9834,-1.37196 -26.23832,-1.37634 -20.108144,-0.003 -24.262824,0.037 -24.748347,0.23989 -1.206042,0.50392 -2.234827,1.68574 -2.611861,3.00038 -0.08147,0.28407 -0.158199,7.09604 -0.170504,15.13771 l -0.02237,14.6212 0.47751,0.976 c 0.548654,1.12141 1.693569,2.0637 2.867625,2.36012 0.408898,0.10324 2.164317,0.19405 3.900932,0.2018 4.113029,0.0184 6.05026,0.17951 6.266353,0.52126 0.09131,0.14441 0.167248,1.88811 0.168741,3.87491 0.0025,3.41444 0.01972,3.59903 0.313017,3.36943 0.170665,-0.13359 1.706657,-1.56576 3.413315,-3.18259 z m -5.232315,-19.64494 c -1.444947,-0.65642 -2.376385,-2.31198 -2.138328,-3.80071 0.319063,-1.9953 1.632398,-3.14116 3.593892,-3.1356 2.805199,0.008 4.404358,2.87337 3.066807,5.49519 -0.780097,1.52912 -2.865707,2.19373 -4.522371,1.44112 z m 13.726999,-0.0819 c -1.16451,-0.61479 -1.813606,-1.64361 -1.895508,-3.00439 -0.09593,-1.59378 0.348571,-2.51778 1.629284,-3.38689 0.564562,-0.38313 0.888735,-0.46607 1.821652,-0.46607 1.42885,0 2.36112,0.44768 3.02668,1.45341 0.43196,0.65274 0.48781,0.90251 0.48781,2.1816 0,1.24789 -0.0603,1.53359 -0.44329,2.09942 -0.95512,1.41122 -3.09622,1.93088 -4.626628,1.12292 z m 14.094368,0.0742 c -2.79882,-1.27105 -2.93747,-5.20455 -0.23211,-6.58472 0.93224,-0.4756 2.69927,-0.47429 3.48137,0.003 1.87783,1.14496 2.35445,3.86327 0.99086,5.65104 -0.90254,1.18328 -2.77798,1.59512 -4.24012,0.9311 z"
       id="path1"
       sodipodi:nodetypes="ssssssscccssscsssssscccssscsssscssssssssscssssscssssscccssscccccssssccsscccccscccccccccccsssscccssscscsssscsscscsssccssscsscccssscsssssscccsssssscssssssssssscccscscsssscccsscssccssssssscccsssccscccsccsscccssscccccscscsssscccsssssccscsssssccccscssscsssscsssssscsscsscsssccccscssscsscccssccssscssssscssccsssscssscscssccssscccscccssssccsscsscscsccsscsssssssscscscscc" /></g></svg>
