<?xml version="1.0" encoding="UTF-8" standalone="no"?>
<!-- Created with Inkscape (http://www.inkscape.org/) -->

<svg
   width="58.646381mm"
   height="112.60793mm"
   viewBox="0 0 58.646381 112.60793"
   version="1.1"
   id="svg1"
   xml:space="preserve"
   inkscape:version="1.3.1 (91b66b0, 2023-11-16)"
   sodipodi:docname="icon.svg"
   xmlns:inkscape="http://www.inkscape.org/namespaces/inkscape"
   xmlns:sodipodi="http://sodipodi.sourceforge.net/DTD/sodipodi-0.dtd"
   xmlns="http://www.w3.org/2000/svg"
   xmlns:svg="http://www.w3.org/2000/svg"><sodipodi:namedview
     id="namedview1"
     pagecolor="#ffffff"
     bordercolor="#000000"
     borderopacity="0.25"
     inkscape:showpageshadow="2"
     inkscape:pageopacity="0.0"
     inkscape:pagecheckerboard="0"
     inkscape:deskcolor="#d1d1d1"
     inkscape:document-units="mm"
     inkscape:zoom="0.36844919"
     inkscape:cx="113.99129"
     inkscape:cy="865.79102"
     inkscape:window-width="1512"
     inkscape:window-height="739"
     inkscape:window-x="0"
     inkscape:window-y="38"
     inkscape:window-maximized="0"
     inkscape:current-layer="layer3"
     showguides="true" /><defs
     id="defs1" /><g
     inkscape:label="Robot L"
     inkscape:groupmode="layer"
     id="layer1"
     transform="translate(-18.976243,-130.73263)"><path
       style="fill:#000000;stroke-width:0.661727"
       d="m 20.814605,243.13277 c -0.724118,-0.32483 -1.461477,-1.15035 -1.666728,-1.86602 -0.10289,-0.35875 -0.171634,-4.49719 -0.171634,-10.33243 0,-9.05113 0.02377,-9.82688 0.338707,-11.0583 0.18629,-0.72839 0.551805,-1.74552 0.812258,-2.26031 1.495307,-2.95547 4.702496,-5.70309 7.603138,-6.51365 0.568263,-0.1588 2.161899,-0.31822 3.888113,-0.38895 l 2.925162,-0.11986 0.05124,-3.14257 0.05124,-3.14257 -1.400657,-0.72572 c -2.71902,-1.40882 -4.819637,-4.11717 -5.669369,-7.30962 -0.190782,-0.71676 -0.399615,-2.17909 -0.464075,-3.2496 l -0.117199,-1.94641 -1.476126,-0.74846 c -3.661873,-1.85674 -5.909741,-5.11921 -6.362563,-9.23437 -0.319419,-2.90282 0.251572,-5.07443 2.020097,-7.68288 0.925288,-1.36472 1.118573,-0.7575 1.222492,-2.63717 0.187225,-3.38651 2.319907,-7.30321 5.345297,-11.01079 3.453046,-4.23166 8.755316,-7.09595 15.656206,-8.45752 l 2.451149,-0.4836 0.04639,-5.0918 0.04639,-5.09179 -0.612391,-0.37848 c -2.8098,-1.73655 -3.188435,-5.96029 -0.733156,-8.17849 1.075528,-0.97167 2.089449,-1.34983 3.616376,-1.34878 1.082309,7.3e-4 1.473651,0.0838 2.226445,0.47282 1.932528,0.99853 2.862782,2.41265 2.990138,4.54541 0.075,1.25605 0.03916,1.44506 -0.470308,2.47994 -0.507797,1.03148 -1.278165,1.90757 -2.065749,2.34925 -0.294261,0.16502 -0.316917,0.53434 -0.316917,5.16608 v 4.98836 l 1.225574,0.111 c 6.214433,0.56286 11.739225,2.99823 15.668592,6.90681 1.739181,1.72998 2.790321,3.15244 4.203041,5.68778 3.495054,6.27241 5.096695,12.08692 5.773576,20.9601 0.389855,5.11058 -0.03837,14.50839 -0.793142,17.40615 -0.741713,2.84762 -2.949099,5.44317 -5.413219,6.36512 -1.794644,0.67146 -2.874657,0.74458 -6.355351,0.43023 -1.759524,-0.1589 -3.228363,-0.25784 -3.264086,-0.21986 -0.03572,0.038 -0.09306,0.6085 -0.127426,1.26781 l -0.06247,1.19876 1.576547,0.39934 c 2.083532,0.52777 4.769027,1.80086 6.344928,3.00791 2.857454,2.18863 5.769748,5.80407 6.994776,8.68359 1.157812,2.72153 1.274435,3.7523 1.272695,11.24872 -0.0018,7.6063 -0.01497,7.68684 -1.411718,8.61122 l -0.745026,0.49305 -27.062998,0.0381 c -22.362293,0.0315 -27.154231,-0.003 -27.588244,-0.19753 z m 15.379044,-7.76301 c 0.0631,-1.80554 0.08521,-4.57125 0.115224,-6.14539 0.06099,-3.1994 -0.281542,-4.05105 1.191052,-4.05315 2.029049,-0.0623 9.790328,0 9.790328,0 10.766268,0 10.824158,0.005 12.519044,1.08109 1.105663,0.702 1.916472,1.51692 2.481787,2.93751 0.706674,1.77581 0.576076,3.51621 0.600872,5.30452 l 0.05765,4.1582 h 4.800869 4.80087 l -0.0021,-5.47131 c -0.0022,-5.80578 -0.04118,-6.16145 -0.910341,-8.30624 -0.790921,-1.95172 -2.030965,-3.72846 -3.887296,-5.56973 -1.946016,-1.93023 -2.899307,-2.52896 -4.948062,-3.1077 -1.361391,-0.38456 -1.470093,-0.38731 -17.431703,-0.43996 -12.162005,0.90683 -14.591298,-0.40246 -17.160678,1.10152 -5.440837,3.18481 -3.623419,3.81757 -4.332657,12.90398 v 8.88939 h 6.10019 6.10019 z m 21.863294,-0.54221 c -0.0039,-2.41578 0.29807,-3.94822 -1.110697,-4.84157 -1.408766,-0.89334 -6.918987,-0.7338 -11.641912,-0.42526 -4.722925,0.30853 -4.285982,-0.31646 -4.333145,4.02278 -0.04716,4.33925 -0.02214,5.06866 -0.02214,5.06866 l 8.579022,3.4e-4 8.579022,3.6e-4 z m -1.175432,-27.10533 c 0,-0.0156 -1.8121,-0.27332 -4.026888,-0.57272 -6.860555,-0.92745 -12.766896,-1.77048 -13.087385,-1.868 -0.282669,-0.086 -0.306393,0.11768 -0.306393,2.63069 v 2.72392 l 8.622792,0.0454 8.622792,0.0454 0.08754,-1.4882 c 0.04815,-0.81851 0.08754,-1.50095 0.08754,-1.51653 z m 12.615565,-4.01214 c 1.399698,-0.49668 2.704767,-2.34996 2.844915,-4.03997 l 0.07764,-0.93628 h -4.75452 c -5.292751,0 -5.695985,-0.0692 -6.314523,-1.08372 -0.705972,-1.15794 -0.254249,-2.55644 1.048213,-3.2452 0.730166,-0.38612 0.898798,-0.3983 5.515472,-0.3983 h 4.762278 l 0.615665,-1.07617 c 0.29552,-0.51656 0.499814,-2.16392 0.184366,-3.3109 l -0.575066,-2.09095 h -8.464071 c -7.921309,0 -8.527388,-0.0218 -9.451469,-0.33972 -3.272173,-1.12579 -5.362906,-4.36136 -5.663435,-8.76456 -0.111419,-1.63246 0.164884,-3.09624 0.830863,-4.40167 0.561178,-1.09999 1.842396,-2.36545 2.941711,-2.90553 l 0.985079,-0.48395 7.922464,0.0653 c 4.357354,0.0359 8.271335,0.26635 7.922463,-0.0185 -0.03565,-0.0291 -0.34506,-0.87275 -0.766799,-1.83706 -2.463739,-5.63335 -5.611168,-9.07997 -10.227334,-11.19956 -3.177868,-1.45915 -5.166851,-1.83712 -9.753092,-1.85337 -2.827089,-0.01 -3.340704,0.0356 -4.989839,0.44359 -7.300372,1.80592 -12.578313,5.54574 -15.219642,10.78429 -0.30837,0.61159 -0.582095,1.57827 -0.499897,1.17276 0.03342,0.0334 0.642763,-0.0198 1.354083,-0.11846 1.495107,-0.20719 3.313199,-0.0169 5.086106,0.53236 5.673487,1.75769 9.206638,8.23246 7.702177,14.11484 -0.603012,2.35776 -1.440301,3.81221 -3.231588,5.61356 -1.861251,1.87171 -3.417148,2.73247 -5.747261,3.17953 -0.790405,0.15164 -1.454797,0.28699 -1.476426,0.3008 -0.02163,0.0137 0.03012,0.82466 0.115017,1.80196 0.233649,2.6899 1.055524,4.21667 2.894604,5.37721 1.812002,1.14344 2.162575,1.22649 8.885113,2.10496 2.627563,0.34334 5.368291,0.73849 6.090504,0.8781 1.477757,0.28566 8.320775,1.14887 12.430827,1.56808 1.492574,0.15224 3.304674,0.34136 4.026888,0.42026 1.439603,0.15727 1.838426,0.12235 2.89851,-0.2538 z m -35.86585,-17.43544 c 1.356347,-0.50748 3.009114,-2.09644 3.637824,-3.4974 1.850488,-4.12343 -0.845178,-9.12711 -5.365905,-9.96016 -2.875662,-0.52992 -5.838823,1.10948 -7.200211,3.98355 -0.511322,1.07947 -0.561368,1.33535 -0.557293,2.84926 0.004,1.50752 0.05669,1.77082 0.562085,2.81182 0.946736,1.95005 3.207018,3.77776 5.185768,4.19333 0.995772,0.20912 2.597885,0.046 3.737732,-0.3804 z m 30.698272,-4.22662 c 2.087013,-1.10363 2.046628,-4.2592 -0.06735,-5.26235 -0.332947,-0.15799 -0.988616,-0.28726 -1.457041,-0.28726 -2.590876,0 -3.970585,2.92451 -2.285265,4.84398 1.022625,1.16471 2.443767,1.42794 3.809654,0.70563 z"
       id="path1"
       sodipodi:nodetypes="ssssssscccssscsssssscccssscsssscssssssssscssssscssssszsssccccsssscsccccsczzzccccsssscccssscscsssscsscscsssccssscsscccssscsssssscccsssssscssssss"
       inkscape:label="Robot L" /></g></svg>
