<?xml version="1.0" encoding="UTF-8" standalone="no"?>
<!-- Created with Inkscape (http://www.inkscape.org/) -->

<svg
   width="65.055176mm"
   height="57.437141mm"
   viewBox="0 0 65.055176 57.437141"
   version="1.1"
   id="svg1"
   xml:space="preserve"
   inkscape:version="1.3.1 (91b66b0, 2023-11-16)"
   sodipodi:docname="icon.svg"
   xmlns:inkscape="http://www.inkscape.org/namespaces/inkscape"
   xmlns:sodipodi="http://sodipodi.sourceforge.net/DTD/sodipodi-0.dtd"
   xmlns="http://www.w3.org/2000/svg"
   xmlns:svg="http://www.w3.org/2000/svg"><sodipodi:namedview
     id="namedview1"
     pagecolor="#ffffff"
     bordercolor="#000000"
     borderopacity="0.25"
     inkscape:showpageshadow="2"
     inkscape:pageopacity="0.0"
     inkscape:pagecheckerboard="0"
     inkscape:deskcolor="#d1d1d1"
     inkscape:document-units="mm"
     inkscape:zoom="0.36844919"
     inkscape:cx="113.99129"
     inkscape:cy="865.79102"
     inkscape:window-width="1512"
     inkscape:window-height="739"
     inkscape:window-x="0"
     inkscape:window-y="38"
     inkscape:window-maximized="0"
     inkscape:current-layer="layer3"
     showguides="true" /><defs
     id="defs1" /><g
     inkscape:groupmode="layer"
     id="layer2"
     inkscape:label="bubble"
     transform="translate(-68.263496,-112.89893)"><circle
       style="fill:#4a5b37;stroke:#000000;stroke-width:5.29167;stroke-linejoin:round"
       id="path2"
       cx="84.370773"
       cy="137.2312"
       r="5.9266968" /><circle
       style="fill:#4a5b37;stroke:#000000;stroke-width:5.29167;stroke-linejoin:round"
       id="circle2"
       cx="117.71546"
       cy="137.25175"
       r="5.9266968" /><circle
       style="fill:#4a5b37;stroke:#000000;stroke-width:5.29167;stroke-linejoin:round"
       id="circle3"
       cx="101.01294"
       cy="137.15169"
       r="5.9266968" /><path
       d="m 83.507297,170.03844 c -0.334399,-0.17052 -0.773254,-0.53509 -0.975233,-0.81017 -0.34272,-0.46675 -0.373153,-0.80408 -0.455892,-5.05347 l -0.08866,-4.55335 -3.103014,-0.10962 c -2.486734,-0.0879 -3.30275,-0.18185 -4.108701,-0.4733 -1.429913,-0.51707 -2.743183,-1.41018 -3.870477,-2.63215 -1.148434,-1.2449 -1.842292,-2.58433 -2.322547,-4.48348 -0.335185,-1.32548 -0.346546,-1.96441 -0.298484,-16.78763 l 0.04996,-15.40971 0.663136,-1.38881 c 1.238022,-2.59281 3.669376,-4.47787 6.641785,-5.14947 1.144359,-0.25856 3.758495,-0.28835 25.303,-0.28835 16.85595,0 24.30722,0.0585 24.96642,0.19595 3.24388,0.67647 6.27005,3.62469 7.17,6.98531 0.18944,0.7074 0.23785,3.92749 0.23953,15.93276 0.002,16.69904 0.0423,16.07611 -1.18197,18.41148 -1.47059,2.8052 -4.08422,4.58449 -7.53257,5.12799 -1.28434,0.20242 -18.34502,0.12194 -24.35262,-0.11488 l -2.482411,-0.0979 -3.006025,2.71162 c -1.653315,1.49138 -4.192242,3.85518 -5.642062,5.25287 -1.44982,1.39771 -2.907205,2.65458 -3.238635,2.79306 -0.807705,0.33748 -1.637693,0.31693 -2.374535,-0.0588 z m 7.079998,-10.87337 c 1.706657,-1.61683 3.531561,-3.33256 4.055341,-3.81272 l 0.952326,-0.87304 14.527818,-0.0281 14.52782,-0.0282 0.96221,-0.47076 c 0.52922,-0.25893 1.20098,-0.76045 1.49282,-1.1145 1.10555,-1.34121 1.07246,-0.83114 1.07246,-16.53269 0,-15.96367 0.0325,-15.50916 -1.20688,-16.88381 -1.34717,-1.49421 0.9834,-1.37196 -26.23832,-1.37634 -20.108147,-0.003 -24.262827,0.037 -24.74835,0.23989 -1.206042,0.50392 -2.234827,1.68574 -2.611861,3.00038 -0.08147,0.28407 -0.158199,7.09604 -0.170504,15.13771 l -0.02237,14.6212 0.47751,0.976 c 0.548654,1.12141 1.693569,2.0637 2.867625,2.36012 0.408898,0.10324 2.164317,0.19405 3.900932,0.2018 4.113029,0.0184 6.05026,0.17951 6.266353,0.52126 0.09131,0.14441 0.167248,1.88811 0.168741,3.87491 0.0025,3.41444 0.01972,3.59903 0.313017,3.36943 0.170665,-0.13359 1.706657,-1.56576 3.413315,-3.18259 z"
       style="fill:#000000;stroke-width:0.670167"
       id="path1-2"
       inkscape:label="bubble" /></g></svg>
