<?xml version="1.0" encoding="UTF-8" standalone="no"?>
<!-- Created with Inkscape (http://www.inkscape.org/) -->

<svg
   width="54.542915mm"
   height="105.42783mm"
   viewBox="0 0 54.542915 105.42783"
   version="1.1"
   id="svg1"
   xml:space="preserve"
   inkscape:version="1.3.1 (91b66b0, 2023-11-16)"
   sodipodi:docname="icon.svg"
   xmlns:inkscape="http://www.inkscape.org/namespaces/inkscape"
   xmlns:sodipodi="http://sodipodi.sourceforge.net/DTD/sodipodi-0.dtd"
   xmlns="http://www.w3.org/2000/svg"
   xmlns:svg="http://www.w3.org/2000/svg"><sodipodi:namedview
     id="namedview1"
     pagecolor="#ffffff"
     bordercolor="#000000"
     borderopacity="0.25"
     inkscape:showpageshadow="2"
     inkscape:pageopacity="0.0"
     inkscape:pagecheckerboard="0"
     inkscape:deskcolor="#d1d1d1"
     inkscape:document-units="mm"
     inkscape:zoom="0.36844919"
     inkscape:cx="113.99129"
     inkscape:cy="865.79102"
     inkscape:window-width="1512"
     inkscape:window-height="739"
     inkscape:window-x="0"
     inkscape:window-y="38"
     inkscape:window-maximized="0"
     inkscape:current-layer="layer3"
     showguides="true" /><defs
     id="defs1" /><g
     inkscape:groupmode="layer"
     id="layer3"
     inkscape:label="Robot R"
     transform="translate(-111.86502,-135.27058)"><path
       d="m 116.59358,240.32492 c -0.71961,-0.48076 -1.13207,-1.31342 -1.13239,-2.28605 -3.7e-4,-1.13856 0.58318,-5.47883 1.05575,-7.85224 1.37752,-6.91839 4.72304,-12.42596 9.93251,-16.35142 1.5779,-1.18898 2.85519,-1.86935 4.65956,-2.48199 l 1.31082,-0.44507 0.0466,-1.8436 0.0466,-1.84362 -1.27547,0.10484 c -5.75895,0.47337 -12.84245,0.96308 -14.05608,0.97174 -1.76599,0.0127 -2.63904,-0.30856 -3.68672,-1.35624 -1.49286,-1.49285 -1.61802,-2.41792 -1.62943,-12.04328 -0.008,-6.93509 0.13694,-10.18914 0.65788,-14.74688 0.70018,-6.12565 1.69882,-9.90509 3.39212,-12.83773 1.86374,-3.22781 4.0582,-5.87106 6.33032,-7.62493 4.5901,-3.54315 8.87636,-5.1212 15.04892,-5.54049 l 2.90841,-0.19756 v -4.69701 -4.69702 l -0.65667,-0.43457 c -1.35278,-0.89523 -2.39075,0.11925 -3.89899,-3.86736 -1.20836,-3.194 4.19425,-4.97238 6.76771,-4.9838 1.54099,-0.007 4.13739,0.61713 5.22072,1.80246 2.1067,2.30507 3.43394,6.58775 -2.73399,7.35779 -0.28226,0.0352 -0.27407,0.6596 -0.28451,4.8337 l -0.0117,4.66984 0.70713,0.0404 c 4.57583,0.26191 8.0824,1.32872 11.38265,3.46298 3.87043,2.50298 6.95705,6.70767 8.01234,10.91467 0.5888,2.34732 0.80213,6.45213 0.58338,11.22506 -0.19167,4.18221 -0.33817,4.91482 -1.43951,7.19852 -0.61757,1.28057 -0.97401,1.77317 -2.07897,2.87312 -0.88912,0.8851 -1.70199,1.51681 -2.439,1.89539 l -1.10541,0.56782 -6e-4,9.03659 -6e-4,9.0366 0.86023,0.20604 c 1.16511,0.27906 1.78391,0.55157 3.00791,1.32459 1.80934,1.14271 2.96159,2.66228 3.78548,4.9923 l 0.45715,1.29283 0.0478,10.35864 c 0.0532,11.51562 0.10808,10.90398 -1.05897,11.79416 l -0.60184,0.45907 -23.78596,0.0426 -23.78597,0.0426 z m 45.3665,-12.69706 -0.0464,-8.64331 -0.50953,-1.06506 c -0.6219,-1.29993 -1.48606,-2.20811 -2.59039,-2.72233 l -0.83258,-0.38769 -11.47309,-0.002 c -11.024,-8.5e-4 -11.52001,0.0114 -12.67185,0.33059 -2.43491,0.67475 -4.72566,2.07595 -6.8235,4.1738 -3.27298,3.27298 -5.30417,7.71459 -6.63148,14.50109 -0.18507,0.94626 -0.37382,1.88637 -0.41945,2.08915 l -0.083,0.36866 h 21.0639 21.0639 z m -22.85428,6.68697 c -0.28799,-0.17709 -0.64074,-0.50071 -0.78388,-0.71917 -0.34897,-0.53262 -0.36088,-1.79934 -0.0218,-2.31689 0.59787,-0.91246 0.38291,-0.88938 8.75707,-0.94073 l 7.75118,-0.0476 0.55236,0.60123 c 0.71534,0.77865 0.86906,1.56067 0.46616,2.37141 -0.167,0.33604 -0.51173,0.76323 -0.76608,0.94928 -0.4491,0.32853 -0.67826,0.33951 -7.94693,0.38134 -7.19389,0.0414 -7.50481,0.0305 -8.0081,-0.27892 z m 0.28111,-8.65348 c -1.20826,-0.60705 -1.67641,-2.1481 -0.99303,-3.26886 0.64723,-1.0615 0.51187,-1.04636 8.8967,-0.9958 7.28443,0.0439 7.59417,0.0583 8.01444,0.37338 0.52163,0.39104 0.95561,1.23186 0.95561,1.85149 0,0.69769 -0.54555,1.55387 -1.24597,1.95543 -0.63388,0.36341 -0.68902,0.366 -7.84794,0.36842 -6.54017,0.003 -7.26254,-0.0241 -7.77981,-0.28406 z m 6.90334,-15.60685 h 7.3487 v -8.60234 c 0,-7.11336 -0.0383,-8.60235 -0.22124,-8.60235 -0.12169,0 -0.86777,1.0716 -1.65797,2.38132 -3.87343,6.42008 -6.62587,8.87405 -11.94022,10.64546 -0.91563,0.3052 -2.05189,0.60538 -2.52502,0.66705 l -0.86023,0.11214 v 1.80533 1.80533 l 1.25362,-0.10597 c 0.6895,-0.0583 4.56056,-0.10597 8.60236,-0.10597 z m -25.50405,-6.39167 c 0.63084,-0.085 2.6954,-0.26795 4.58791,-0.40662 6.05481,-0.44362 10.68421,-1.03803 12.37099,-1.58842 4.5157,-1.47348 6.6628,-3.40165 10.21648,-9.17475 l 1.07693,-1.74953 -0.77175,-0.45228 c -1.17231,-0.68702 -3.16007,-2.76933 -3.89062,-4.07568 -1.72573,-3.08588 -1.84541,-6.71216 -0.32995,-9.99695 1.2084,-2.6192 3.39342,-4.45321 6.57561,-5.51924 0.94274,-0.31582 1.46277,-0.37801 3.09908,-0.37058 1.70977,0.008 2.13704,0.0681 3.27551,0.46266 1.22652,0.42506 2.90447,1.30814 3.57242,1.88009 0.27792,0.23798 0.28775,0.21228 0.18239,-0.47657 -0.55472,-3.62653 -1.94067,-6.47013 -4.308,-8.83886 -2.16494,-2.16621 -4.17267,-3.31323 -7.23828,-4.13525 -1.32734,-0.35592 -1.64561,-0.37078 -7.93695,-0.37078 h -6.55417 l -1.72047,0.43837 c -5.95353,1.51695 -10.93513,5.49508 -13.66187,10.90984 l -0.59889,1.18927 4.46775,-0.10234 c 5.88945,-0.1349 8.48879,0.0644 9.90578,0.75973 0.55769,0.27364 1.21465,0.73477 1.45991,1.02476 1.08444,1.28212 1.69854,3.48636 1.69901,6.09828 3.2e-4,1.9064 -0.26342,3.19592 -0.86288,4.21881 -0.60286,1.0287 -2.14937,2.40423 -3.50262,3.11533 -1.97718,1.03899 -2.49284,1.09922 -9.43382,1.10194 l -6.18549,0.003 -5e-5,2.5807 -6e-5,2.5807 h 4.79278 c 4.69136,0 4.8036,0.008 5.30368,0.36442 0.28098,0.20044 0.60388,0.58893 0.71754,0.86332 0.26065,0.62929 0.12324,1.72232 -0.27239,2.1666 -0.59932,0.67305 -1.11412,0.74912 -5.91262,0.87374 l -4.62888,0.12023 -0.0356,1.16486 c -0.074,2.42606 0.0627,4.76298 0.30082,5.13832 0.21381,0.33708 0.3564,0.36821 1.6638,0.36331 0.78647,-0.003 1.94608,-0.0749 2.57693,-0.15985 z m 36.2351,-17.04184 c 1.18763,-0.58102 2.06278,-1.49172 2.65554,-2.7635 0.36236,-0.77744 0.42948,-1.15051 0.43096,-2.39555 0.002,-1.32047 -0.053,-1.59048 -0.52198,-2.5821 -0.94157,-1.9908 -2.55517,-3.35688 -4.69444,-3.97429 -1.91374,-0.55233 -3.94045,0.12631 -5.53971,1.85497 -1.23932,1.33959 -1.66694,2.43423 -1.6766,4.2918 -0.007,1.23936 0.0502,1.51139 0.51509,2.46987 1.6265,3.35411 5.51803,4.71963 8.83114,3.0988 z m -31.29435,-4.60109 c 1.33198,-0.8232 1.69443,-2.65176 0.78274,-3.94896 -1.59443,-2.26859 -5.15001,-1.17182 -5.15001,1.58861 0,2.19225 2.47496,3.52987 4.36727,2.36035 z"
       style="fill:#000000;stroke-width:0.619292"
       id="path1-26"
       inkscape:label="Robot R" /></g></svg>
